<svg width="57" height="57" viewBox="0 0 57 57" fill="none" xmlns="http://www.w3.org/2000/svg">
<path d="M28.5 47.5C27.1937 47.5 26.0755 47.0349 25.1453 46.1047C24.2151 45.1745 23.75 44.0563 23.75 42.75C23.75 41.4438 24.2151 40.3255 25.1453 39.3953C26.0755 38.4651 27.1937 38 28.5 38C29.8063 38 30.9245 38.4651 31.8547 39.3953C32.7849 40.3255 33.25 41.4438 33.25 42.75C33.25 44.0563 32.7849 45.1745 31.8547 46.1047C30.9245 47.0349 29.8063 47.5 28.5 47.5ZM28.5 33.25C27.1937 33.25 26.0755 32.7849 25.1453 31.8547C24.2151 30.9245 23.75 29.8062 23.75 28.5C23.75 27.1938 24.2151 26.0755 25.1453 25.1453C26.0755 24.2151 27.1937 23.75 28.5 23.75C29.8063 23.75 30.9245 24.2151 31.8547 25.1453C32.7849 26.0755 33.25 27.1938 33.25 28.5C33.25 29.8062 32.7849 30.9245 31.8547 31.8547C30.9245 32.7849 29.8063 33.25 28.5 33.25ZM28.5 19C27.1937 19 26.0755 18.5349 25.1453 17.6047C24.2151 16.6745 23.75 15.5563 23.75 14.25C23.75 12.9437 24.2151 11.8255 25.1453 10.8953C26.0755 9.9651 27.1937 9.5 28.5 9.5C29.8063 9.5 30.9245 9.9651 31.8547 10.8953C32.7849 11.8255 33.25 12.9437 33.25 14.25C33.25 15.5563 32.7849 16.6745 31.8547 17.6047C30.9245 18.5349 29.8063 19 28.5 19Z" fill="white"/>
</svg>
